<?xml version="1.0" encoding="utf-8"?>
<!-- Generator: Adobe Illustrator 24.0.2, SVG Export Plug-In . SVG Version: 6.00 Build 0)  -->
<svg version="1.1" id="Layer_1" xmlns="http://www.w3.org/2000/svg" xmlns:xlink="http://www.w3.org/1999/xlink" x="0px" y="0px"
	 viewBox="0 0 512 512" style="enable-background:new 0 0 512 512;" xml:space="preserve">
<style type="text/css">
	.st0{fill:#C5E9F9;}
	.st1{fill:#5E889E;}
</style>
<circle class="st0" cx="256.3281" cy="255.9678" r="248.873"/>
<g>
	<path class="st1" d="M251.3322,188.0284c-3.079,1.6901-5.177,4.9678-5.177,8.7162v28.8657c0,3.7463,2.098,7.024,5.177,8.7141
		c0.1381,0.0669,0.2782,0.1234,0.4079,0.1904v-0.1904c1.2969,0.7677,2.7883,1.2132,4.3487,1.2132
		c1.5667,0,3.0518-0.4455,4.3445-1.2132v0.1904c0.1339-0.0669,0.2782-0.1234,0.4079-0.1904c3.079-1.6901,5.177-4.9678,5.177-8.7141
		v-28.8636c0-3.7504-2.098-7.0282-5.177-8.7162c-0.1318-0.0669-0.274-0.1234-0.4079-0.1904v0.1904
		c-1.2927-0.7635-2.7799-1.2174-4.3445-1.2174c-1.5625,0-3.0518,0.4539-4.3487,1.2174v-0.1904
		C251.6083,187.905,251.4702,187.9615,251.3322,188.0284z"/>
	<path class="st1" d="M150.5701,241.432v19.5136c30.0203,16.9408,64.4939,26.8576,101.17,27.5855v-24.0317
		c-0.1318-0.0397-0.2698-0.0607-0.4079-0.0983c-7.9569-2.1126-13.8618-9.4002-13.8618-17.9992v-49.6553
		c0-8.6053,5.907-15.8908,13.8618-17.9992c0.138-0.0376,0.2782-0.0627,0.4079-0.0962v-24.1133h-14.2718
		C189.6789,154.5379,150.5701,193.6447,150.5701,241.432z"/>
	<path class="st1" d="M274.7155,154.5379h-14.2823v24.1112c0.1339,0.0335,0.2782,0.0586,0.4079,0.0962
		c7.9652,2.1085,13.8744,9.3939,13.8744,17.9992v49.6532c0,8.6011-5.9091,15.8887-13.8744,17.9992
		c-0.1318,0.0377-0.274,0.0586-0.4079,0.0983v24.0317c36.6824-0.7279,71.1602-10.6447,101.1742-27.5855v-19.5136
		C361.6075,193.6447,322.5007,154.5379,274.7155,154.5379z"/>
	<path class="st1" d="M150.5701,270.8499v107.1293c0,47.7978,39.1109,86.9024,86.8983,86.9024h37.2472
		c47.7852,0,86.892-39.1046,86.892-86.9024V270.8499c-31.4573,16.8697-67.3993,26.4456-105.5187,26.4456
		S182.0274,287.7217,150.5701,270.8499z"/>
	<path class="st1" d="M263.4077,116.2742c1.9767-4.6562,4.8214-8.7957,8.4464-12.3035l0.638-0.6108
		c4.4763-4.3298,7.9757-9.4274,10.4105-15.1587c2.4306-5.7313,3.6563-11.7994,3.6563-18.0222V46.5385h-8.6827V70.179
		c0,5.0494-1.0019,9.9712-2.9744,14.6274c-1.9725,4.652-4.8172,8.7915-8.4422,12.3056l-0.638,0.6108
		c-4.4804,4.3257-7.982,9.4274-10.4105,15.1628c-2.4306,5.7313-3.6709,11.7931-3.6709,18.018V154.54h8.6932v-23.6364
		C260.4333,125.8501,261.4394,120.9262,263.4077,116.2742z"/>
</g>
</svg>
