<?xml version="1.0" encoding="UTF-8" standalone="no"?> <svg id="Layer_1" data-name="Layer 1" xmlns="http://www.w3.org/2000/svg" viewBox="0 0 128 128"><defs><style>.cls-1{fill:#CCCCCC;}.cls-2{fill:#CCCCCC;}</style></defs><title>n</title><path class="cls-1" d="M114.7273,91.7022V36.5002a11.2471,11.2471,0,0,0-11.24791-11.24641H24.52061A11.24709,11.24709,0,0,0,13.2727,36.5002v55.202H1.09971v.036c0,2.27,1.5323,4.381,3.45293,6.13672a15.82678,15.82678,0,0,0,4.8593,2.67628,41.177,41.177,0,0,0,7.91041,1.70473,52.814,52.814,0,0,0,7.25073.49028L64,102.72851l39.42691.01769a52.81374,52.81374,0,0,0,7.25073-.49028,41.177,41.177,0,0,0,7.91041-1.70473,15.82671,15.82671,0,0,0,4.85932-2.67628c1.92063-1.75571,3.45293-3.86676,3.45293-6.13672v-.036Zm-8.12632,0H78.20833a6.30011,6.30011,0,0,1-5.92382,4.14563h-16.569a6.30011,6.30011,0,0,1-5.92381-4.14563H21.399V36.5002a3.121,3.121,0,0,1,3.1216-3.12009h78.95879A3.121,3.121,0,0,1,106.601,36.5002Z"/><path class="cls-2" d="M67.95044,69.57158H40.3114a1.63316,1.63316,0,0,0,0,3.26631h27.639a1.63316,1.63316,0,1,0,0-3.26631Z"/><path class="cls-2" d="M53.6722,79.32829H40.3114a1.63315,1.63315,0,0,0,0,3.2663H53.6722a1.63315,1.63315,0,1,0,0-3.2663Z"/><path class="cls-2" d="M39.78608,60.50189c.16858.06814.34789.1327.53079.19365a9.71917,9.71917,0,0,0,3.09148.43753,8.72,8.72,0,0,0,3.23491-.51644,4.877,4.877,0,0,0,3.09147-3.47519,10.27708,10.27708,0,0,0,.30485-2.53559V44.51375a2.06038,2.06038,0,0,0-4.12075,0v9.8805a3.71622,3.71622,0,0,1-.6635,2.48537,2.7785,2.7785,0,0,1-2.16616.7388,5.13284,5.13284,0,0,1-1.90078-.34428c-.02511-.01077-.05022-.018-.07532-.0287a1.76873,1.76873,0,0,0-.67066-.1291,1.7551,1.7551,0,0,0-.65632,3.38555Z"/><path class="cls-2" d="M68.76658,44.46133a8.04779,8.04779,0,0,0-2.90305-1.82418,10.27587,10.27587,0,0,0-3.54109-.60614,10.03049,10.03049,0,0,0-3.47437.60614,8.2103,8.2103,0,0,0-2.906,1.82418,8.75368,8.75368,0,0,0-1.9924,3.00167,10.64663,10.64663,0,0,0-.73953,4.1298,11.05744,11.05744,0,0,0,.71345,4.13562,8.39826,8.39826,0,0,0,1.95469,2.98714,8.09783,8.09783,0,0,0,2.90593,1.80679,10.20621,10.20621,0,0,0,3.53819.61192,10.50619,10.50619,0,0,0,3.60779-.61192,7.86913,7.86913,0,0,0,2.89145-1.80679,8.47359,8.47359,0,0,0,1.91409-2.98714,11.243,11.243,0,0,0,.69893-4.13562,11.10867,11.10867,0,0,0-.70762-4.1298A8.60416,8.60416,0,0,0,68.76658,44.46133ZM66.85248,54.026a5.4413,5.4413,0,0,1-.95124,1.859,4.18319,4.18319,0,0,1-1.53129,1.20646,5.23013,5.23013,0,0,1-4.1095,0A4.20708,4.20708,0,0,1,58.74367,55.885a5.4924,5.4924,0,0,1-.95125-1.859,9.13218,9.13218,0,0,1,0-4.84906,5.55345,5.55345,0,0,1,.95125-1.87638,4.35,4.35,0,0,1,1.51678-1.21228,4.68422,4.68422,0,0,1,2.062-.4379,4.78009,4.78009,0,0,1,2.0475.42341,4.13843,4.13843,0,0,1,1.53129,1.20065,5.5021,5.5021,0,0,1,.95124,1.87641,8.34552,8.34552,0,0,1,.33061,2.44192A8.21734,8.21734,0,0,1,66.85248,54.026Z"/><path class="cls-2" d="M86.31247,50.85326a3.87479,3.87479,0,0,0,2.1113-3.45989,4.65187,4.65187,0,0,0-.59452-2.44192,4.48705,4.48705,0,0,0-1.65019-1.60087,7.60421,7.60421,0,0,0-2.52313-.85554,18.97251,18.97251,0,0,0-3.21047-.25232H74.87139V60.473h.0029v.52783H80.9762q4.14576,0,6.24693-1.453a4.9251,4.9251,0,0,0,2.0968-4.33282,5.15223,5.15223,0,0,0-.62933-2.56374A4.34763,4.34763,0,0,0,86.31247,50.85326ZM78.88808,45.6504c.31612-.03481.67864-.058,1.08467-.06382.40311-.01159.78012-.01449,1.13685-.01449a5.46942,5.46942,0,0,1,2.47962.44661,1.6148,1.6148,0,0,1,.84684,1.56029,1.69671,1.69671,0,0,1-.82073,1.57189,5.56557,5.56557,0,0,1-2.71746.48723H78.88808Zm5.12457,11.44106a7.161,7.161,0,0,1-2.98716.52783c-.4205,0-.80913-.00869-1.16006-.02608-.35381-.0174-.67862-.04641-.97735-.08122V52.78475h2.58983a5.56048,5.56048,0,0,1,2.71744.53943,1.91989,1.91989,0,0,1,.95415,1.81259A1.96392,1.96392,0,0,1,84.01265,57.09146Z"/></svg>